<svg width="281" height="45" viewBox="0 0 281 45" fill="none" xmlns="http://www.w3.org/2000/svg">
<path fill-rule="evenodd" clip-rule="evenodd" d="M259.818 38.076C264.086 38.076 267.824 28.9874 267.824 24.1801C267.824 22.0695 266.815 20.7794 265.156 20.7794C260.884 20.7794 257.089 29.8091 257.089 34.6176C257.089 36.6706 258.217 38.076 259.818 38.076ZM190.145 20.8383C187.948 20.8383 184.746 24.3555 184.746 31.2157C189.61 29.8692 192.162 27.2889 192.162 23.5939C192.162 21.8341 191.45 20.8383 190.145 20.8383ZM117.085 28.4012C117.085 25.1771 118.271 22.89 121.118 20.4863C120.821 20.3698 120.465 20.3097 119.872 20.3097C113.764 20.3097 111.866 28.4012 111.866 33.3263C111.866 37.1967 113.171 39.4262 115.366 39.4262C116.789 39.4262 118.152 38.2526 119.813 35.6723C117.975 33.3864 117.085 31.0404 117.085 28.4012ZM274.704 38.0171C276.067 38.0171 277.254 36.9036 280.989 33.2098V36.4928C276.009 41.1247 273.518 43.4707 270.551 43.4707C266.103 43.4707 266.162 37.2555 266.223 35.4957C262.249 41.1247 259.224 43.4707 255.844 43.4707C252.732 43.4707 250.259 40.541 249.814 36.5958C245.238 41.3295 241.705 43.4707 238.468 43.4707C235.86 43.4707 234.138 41.5355 234.138 38.5469C234.138 36.6706 235.146 32.9756 236.688 29.164C237.518 27.1123 237.932 25.8222 238.054 24.884C238.054 24.239 237.816 23.9471 237.342 23.9471C235.68 23.9471 231.411 28.9874 228.861 32.0374C227.972 36.4927 227.911 38.6634 227.911 42.0629L221.506 43.5271C221.388 41.8299 221.21 40.1289 221.21 37.7841C221.21 37.4689 221.215 37.1562 221.222 36.8472C216.276 41.5686 213.046 43.5271 210.384 43.5271C208.012 43.5271 206.174 41.3025 206.174 38.4279C206.174 35.6723 207.539 32.2729 210.563 27.5808C209.021 28.3424 207.835 28.7532 205.878 29.1064C204.456 31.6266 202.855 33.6194 199.947 36.4928H199.931C194.414 41.771 191.212 43.4707 186.884 43.4707C182.31 43.4707 179.077 40.7813 178.292 36.5173C173.149 41.5404 170.011 43.4707 166.932 43.4707C163.79 43.4707 161.605 40.7911 161.38 36.6779C156.089 41.5944 153.171 43.418 150.605 43.418C147.283 43.418 145.86 40.4269 145.86 36.7331C141.471 41.4828 138.388 43.4756 135.244 43.4756C132.278 43.4756 130.38 40.8978 130.38 36.792C130.38 36.7748 130.382 36.7564 130.382 36.738C128.468 38.3519 126.643 38.7824 125.626 38.8388C124.083 38.7799 122.955 38.3691 121.474 37.2555C118.687 41.419 115.484 43.4707 111.925 43.4707C107.929 43.4707 105.103 40.6562 104.513 36.1763V36.4928C99.3526 41.4767 95.6164 43.4707 91.2871 43.4707C86.8314 43.4707 83.492 40.6734 82.7763 36.5835C75.3546 41.538 69.9685 43.5235 63.7314 43.5235C63.6086 43.5235 63.4883 43.5198 63.3655 43.5173C63.2266 43.521 63.0876 43.5271 62.9462 43.5271C55.3558 43.5271 51.5612 38.8388 51.5612 37.5486C51.5612 37.4689 51.5811 37.3598 51.6158 37.2359C52.0562 35.6551 55.0817 30.9226 55.3558 30.9226C56.6012 30.9815 57.0751 31.5677 57.1942 33.2687C57.4323 35.6723 57.8467 41.2424 63.9547 41.2424C66.262 41.2424 68.3981 40.2172 69.8246 38.6524C70.9274 37.4395 71.6047 35.9029 71.6047 34.2645C71.6047 30.3585 67.3102 27.4901 63.7401 23.7803C62.9549 22.9636 62.2044 22.1076 61.5433 21.1878C60.0683 19.1435 59.0325 16.7938 59.0325 13.9192C59.0325 9.2308 62.7701 2.01736 71.4273 2.01736C77.8926 2.01736 81.3324 5.94539 81.3324 7.17665C81.3324 8.17368 79.4332 10.5185 77.5961 12.6879H77.0627C76.6472 12.5113 76.4685 12.1606 76.3507 10.9894C75.9351 7.06015 73.3847 4.30329 70.1235 4.30329C67.0385 4.30329 64.5477 6.82591 64.5477 9.87341C64.5477 13.1576 67.1849 15.8507 70.1149 18.6223C72.5561 20.9327 75.1983 23.2971 76.6893 26.1043C77.4336 27.506 77.8926 29.0181 77.8926 30.6896C77.8926 33.1865 76.9697 35.5644 75.4141 37.583C77.5291 36.7613 79.819 35.4111 82.7155 33.3471C83.5479 25.7364 90.2563 18.4935 96.8618 18.4935C100.302 18.4935 102.673 20.5464 102.673 23.5939C102.673 24.6486 102.319 25.1195 101.251 25.5867L97.8703 27.17C97.5143 27.3466 97.1583 27.4631 96.9809 27.4631C96.6844 27.4631 96.5653 27.2288 96.5653 26.8769C96.5653 26.4084 96.9213 24.3555 96.9213 23.8281C96.9213 22.1284 96.1498 21.0149 94.9639 21.0149C92.0587 21.0149 89.3297 25.9399 89.3297 31.1569C89.3297 35.6723 91.7027 38.6045 95.3794 38.6045C98.266 38.6045 100.57 37.2715 104.435 33.2895C105.005 25.057 111.937 18.4935 120.288 18.4935C125.565 18.4935 125.565 20.4863 125.565 22.0695C125.565 25.8798 124.617 29.8692 122.6 35.2026C123.431 35.9654 124.44 36.4928 125.684 36.5528C126.752 36.4928 128.174 35.9654 130.666 33.2098V33.2171C131.184 29.6877 132.416 25.393 134.414 20.024L142.124 18.4996C141.471 20.3747 137.379 32.1613 137.379 36.0893C137.379 37.7902 138.149 38.8437 139.456 38.8437C141.708 38.8437 145.385 34.213 145.978 32.2213L149.775 20.024L157.661 18.4408C154.282 29.1702 152.916 33.3336 152.916 35.4442C152.916 37.1439 153.629 38.1422 154.757 38.1422C156.118 38.1422 157.661 37.0851 160.449 34.2706C160.964 33.8205 161.149 33.5826 161.587 33.2012C162.077 29.9967 163.256 26.7236 164.084 23.7693L161.831 23.887L162.778 19.3728L165.509 19.2551L168.237 10.3431L176.006 8.75988L173.041 18.7265L177.073 18.4935L176.124 22.89L171.616 23.2419C170.963 25.5867 168.711 31.5677 168.711 34.9696C168.711 36.7858 169.718 38.0171 171.143 38.0171C173.526 38.0171 175.34 36.2683 178.149 33.3864C178.697 25.6849 185.112 18.5524 191.806 18.5524C195.365 18.5524 197.736 20.5464 197.736 23.5363C197.736 29.0463 189.848 31.6854 184.986 33.1509C185.696 36.727 187.833 38.721 191.034 38.721C194.297 38.721 196.372 36.6706 199.931 33.2098V33.2331C201.256 31.8056 202.415 30.345 203.388 28.9298C201.669 28.167 200.897 27.17 200.897 25.7057C200.897 24.239 202.143 18.4935 206.591 18.4935C208.133 18.4935 208.844 19.2551 208.844 20.7794C208.844 21.893 208.427 23.6528 207.539 25.9399C211.099 25.4114 213.293 23.4762 215.96 18.6689L218.57 18.5524L215.901 25.8798C213.706 32.0374 213.232 33.4453 213.232 35.145C213.232 36.727 214.003 37.7841 215.308 37.7841C216.719 37.7841 217.26 37.3193 221.479 33.3189C222 29.1726 223.32 25.1207 225.777 19.7836L232.833 18.4334C231.826 21.1326 230.522 24.8252 229.927 27.7562C234.495 22.7723 238.704 18.4935 242.443 18.4935C244.398 18.4935 245.881 20.1356 245.881 22.3626C245.881 24.0035 244.992 27.3466 243.391 31.3936C242.322 34.0891 241.671 36.2009 241.671 37.0213C241.671 38.076 242.205 38.721 243.094 38.721C245.089 38.721 249.056 34.2461 249.887 33.2441C251.124 24.4965 259.905 18.4334 264.858 18.4334C267.232 18.4334 268.95 19.5494 269.901 21.7188L275.829 18.4935H277.43L274.881 26.8769C274.23 28.9874 272.924 33.7972 272.924 35.5546C272.924 37.1378 273.637 38.0171 274.704 38.0171ZM30.1123 13.9008C31.4955 12.1127 32.2497 10.1285 32.2497 8.18349C32.2497 7.09203 32.0214 6.01406 31.5538 4.99864C30.4162 2.5312 27.9638 0.800812 24.7821 0C26.9169 1.73039 30.5155 5.4389 30.5155 10.8986C30.5155 11.8417 30.3555 12.8559 30.1123 13.9008ZM15.5679 13.9008C15.3235 12.8559 15.1635 11.8417 15.1635 10.8986C15.1635 5.4389 18.7621 1.73039 20.8969 0C17.7151 0.800812 15.2627 2.5312 14.1265 4.99864C13.6576 6.01406 13.4306 7.09203 13.4306 8.18349C13.4306 10.1285 14.1835 12.1127 15.5679 13.9008ZM41.3931 32.4445C39.8004 33.1154 34.4118 34.7207 30.1892 28.5827C29.9895 29.2744 29.8357 30.1096 29.7675 31.109C30.5341 31.6658 30.7301 32.2729 30.7301 32.6996C30.7301 33.2527 30.4163 33.7371 29.8903 34.1639C30.3183 35.9728 32.169 37.6786 34.0992 37.995C40.139 38.9774 43.0975 33.4403 44.2251 30.5155C43.5664 31.1765 42.6398 31.9172 41.3931 32.4445ZM22.9276 35.7704C22.9276 35.7704 22.868 35.7667 22.8122 35.7704C22.8122 35.7704 22.2031 35.752 21.8248 35.741C21.7045 38.7554 21.3026 41.8998 18.4507 44.5708C20.1328 44.9473 22.3458 44.9988 22.8172 45H22.9201C23.3965 44.9988 25.607 44.9473 27.2878 44.5708C24.4397 41.8998 24.0365 38.7554 23.9187 35.741C23.5366 35.752 22.9276 35.7704 22.9276 35.7704ZM34.0657 11.2224C38.0389 9.10571 40.8114 9.89426 42.4165 10.9146C39.2025 5.70379 34.8087 3.04259 32.4779 1.95727C33.5621 3.17627 34.9353 5.21325 34.9353 7.7604C34.9353 8.83346 34.6785 9.99728 34.0657 11.2224ZM28.0097 35.7508L28.006 35.7606C28.006 35.7606 27.9465 35.4258 27.8944 35.1376C27.3014 35.3142 26.6366 35.4552 25.8923 35.5607C26.216 39.3391 27.9688 41.9991 31.0811 43.4879C33.3165 42.7472 35.496 41.3638 36.7525 40.4809C29.7538 41.3504 28.1735 36.3579 28.0097 35.7508ZM37.1904 24.2194C37.7102 24.8105 37.8888 25.4457 37.8888 26.0221C37.8888 26.3373 37.8256 26.6255 37.7462 26.8867C38.4073 26.5875 39.4022 25.9522 40.1787 24.4732C40.6141 23.356 40.7903 22.3945 40.7903 21.5741C40.7903 18.8528 38.8452 17.6363 37.8231 17.1862C34.8447 15.874 30.3406 16.6809 28.7615 19.7407C26.546 23.5473 26.1577 27.9757 26.0213 29.8729C26.7135 29.9759 27.3374 30.1181 27.9093 30.2898C27.9192 30.2028 27.9304 30.0997 27.9341 30.074C28.4911 26.4562 30.3579 23.8564 32.9294 23.1156C34.5495 22.6496 36.1819 23.0739 37.1904 24.2194ZM12.8103 23.1156C15.3843 23.8551 17.2524 26.4562 17.8057 30.074C17.8057 30.074 17.8206 30.1954 17.8292 30.2898C18.4023 30.1181 19.03 29.9747 19.7197 29.8716C19.582 27.9732 19.1938 23.5473 16.9708 19.7248C15.3979 16.6809 10.8938 15.874 7.91669 17.1862C6.89206 17.6375 4.94453 18.8577 4.94453 21.5716C4.94453 22.3859 5.1182 23.3351 5.5474 24.4389C6.33385 25.9399 7.33118 26.5813 7.99483 26.8855C7.91544 26.623 7.8497 26.3361 7.8497 26.0233C7.8497 25.4457 8.02957 24.8092 8.54932 24.2194C9.55782 23.0727 11.1903 22.6508 12.8103 23.1156ZM17.73 35.7508C17.5663 36.3579 15.9884 41.3504 8.98969 40.4821C10.2488 41.3663 12.4295 42.7484 14.6599 43.4879C17.7747 41.9979 19.5274 39.3379 19.8475 35.5607C19.1044 35.4552 18.4383 35.3142 17.8454 35.1364C17.7945 35.4185 17.7337 35.7484 17.73 35.7508ZM22.9276 33.9186C26.7221 33.9186 28.5233 33.0136 28.795 32.6996C28.5233 32.3832 26.7221 31.4794 22.9276 31.4794H22.8122C19.0176 31.4794 17.2177 32.3832 16.9448 32.6996C17.2165 33.0136 19.0164 33.9186 22.8122 33.9186H22.9276ZM11.6753 11.2224C11.0613 9.99605 10.8057 8.83346 10.8057 7.75917C10.8057 5.21325 12.1777 3.17627 13.2619 1.95727C10.931 3.04259 6.53729 5.70379 3.32572 10.9146C4.9284 9.89303 7.70208 9.10694 11.6753 11.2224ZM18.8315 17.5565L19.8326 20.2999C20.2792 21.4392 20.7034 22.5135 21.0296 23.8539C21.5717 26.0736 21.7007 27.9009 21.8049 29.3676L21.8248 29.6288C21.8248 29.6288 21.826 29.6533 21.826 29.6583C22.2031 29.646 22.8122 29.6288 22.8122 29.6288C22.8122 29.6288 22.9263 29.6435 22.9288 29.6288C22.9288 29.6288 23.5391 29.646 23.9162 29.6583C23.9162 29.6533 23.9373 29.3529 23.9373 29.3529C24.0477 27.8114 24.1717 26.0675 24.7113 23.8539C25.0388 22.511 25.4631 21.4343 25.9121 20.2938L26.9095 17.5565C27.4751 15.8078 27.7083 14.1277 27.7083 12.5481C27.7083 6.13915 23.8778 1.36371 22.8705 0.221972C21.8632 1.35881 18.0302 6.11094 18.0302 12.526C18.0302 14.1105 18.2634 15.7967 18.8315 17.5565ZM37.6097 30.6504C39.5312 30.697 41.4043 29.9366 42.8891 28.5092C44.6965 26.769 45.736 24.2427 45.7397 21.579C45.7447 18.8773 44.7114 16.3253 42.904 14.579C41.4093 13.1331 39.5014 12.3641 37.5303 12.412C34.8559 12.4782 32.953 13.9363 31.7795 15.2252C36.2452 13.4875 40.2953 14.9321 42.1424 17.5676C43.6409 19.7051 43.8356 22.641 42.6373 25.0471C41.3398 27.6556 38.6281 29.2486 35.202 29.4167L34.3572 29.4584L34.9402 28.8501C35.1734 28.6073 35.7056 27.5906 35.5158 26.7383C35.4066 26.2416 35.0742 25.8897 34.4961 25.6616C33.7345 25.3513 32.7694 25.4984 31.8515 26.0662C31.6121 26.2134 31.3392 26.5163 31.1456 26.742C32.8476 29.2548 35.0147 30.5842 37.6097 30.6504ZM15.8495 34.1651C15.3235 33.7371 15.0097 33.2515 15.0097 32.6996C15.0097 32.2729 15.2057 31.6658 15.9735 31.109C15.9065 30.1108 15.7527 29.2756 15.5518 28.5827C11.328 34.7219 5.94186 33.1166 4.34911 32.4445C3.1012 31.9172 2.17333 31.174 1.51588 30.5143C2.64223 33.4391 5.60074 38.9786 11.6418 37.995C13.572 37.6774 15.4227 35.9715 15.8495 34.1651ZM8.13129 30.6504C6.2098 30.697 4.33546 29.9379 2.85311 28.5104C1.04575 26.769 0.00499735 24.2427 1.76615e-05 21.579C-0.00492648 18.8773 1.02838 16.3265 2.83574 14.579C4.3305 13.1331 6.23958 12.3641 8.20695 12.412C10.8826 12.4782 12.7855 13.9363 13.9615 15.2252C9.4958 13.4863 5.44444 14.9309 3.59862 17.5676C2.0989 19.7051 1.90539 22.6423 3.10368 25.0471C4.40369 27.6556 7.11286 29.2486 10.539 29.4167L11.385 29.4584L10.8008 28.8501C10.5676 28.6073 10.0366 27.5906 10.2252 26.7383C10.3344 26.2416 10.6668 25.8897 11.2424 25.6628C12.0077 25.3525 12.9716 25.4997 13.8895 26.0662C14.1277 26.2134 14.4018 26.5163 14.5941 26.742C12.891 29.2548 10.7239 30.5842 8.13129 30.6504Z" fill="#E8EEF3"/>
</svg>
